<svg width="39" height="38" viewBox="0 0 39 38" fill="none" xmlns="http://www.w3.org/2000/svg">
<path d="M19.6815 37.9376C30.0681 37.9376 38.4881 29.5176 38.4881 19.131C38.4881 8.74444 30.0681 0.324463 19.6815 0.324463C9.29498 0.324463 0.875 8.74444 0.875 19.131C0.875 29.5176 9.29498 37.9376 19.6815 37.9376Z" fill="#5B68C0"/>
<path fill-rule="evenodd" clip-rule="evenodd" d="M22.2141 10.9841C22.2141 10.9841 19.4226 10.8017 18.707 13.457C18.707 13.457 18.4478 14.1536 18.4834 15.8695L15.9202 15.8769V18.1215L18.4834 18.1141V27.2805H21.7507V18.1215L24.342 18.1215V15.8695L21.7507 15.8695V14.6463C21.7507 13.8532 22.1912 13.0947 23.4798 13.0947H24.6966V10.9841H22.2141Z" fill="white"/>
</svg>
