<svg width="38" height="38" viewBox="0 0 38 38" fill="none" xmlns="http://www.w3.org/2000/svg">
<path d="M29.8311 0.324463H7.78202C3.48413 0.324463 0 3.80859 0 8.10648V30.1555C0 34.4534 3.48413 37.9376 7.78202 37.9376H29.8311C34.129 37.9376 37.6131 34.4534 37.6131 30.1555V8.10648C37.6131 3.80859 34.129 0.324463 29.8311 0.324463Z" fill="#FF78C7"/>
<path d="M28.534 4.86401H9.07894C6.57184 4.86401 4.53943 6.89642 4.53943 9.40353V28.8586C4.53943 31.3657 6.57184 33.3981 9.07894 33.3981H28.534C31.0411 33.3981 33.0735 31.3657 33.0735 28.8586V9.40353C33.0735 6.89642 31.0411 4.86401 28.534 4.86401Z" stroke="white" stroke-width="2" stroke-linecap="round"/>
<path d="M18.8065 24.9677C22.0299 24.9677 24.643 22.3546 24.643 19.1312C24.643 15.9078 22.0299 13.2947 18.8065 13.2947C15.5831 13.2947 12.97 15.9078 12.97 19.1312C12.97 22.3546 15.5831 24.9677 18.8065 24.9677Z" stroke="white" stroke-width="3" stroke-linecap="round"/>
<path d="M27.237 12.6461C28.3115 12.6461 29.1825 11.7751 29.1825 10.7006C29.1825 9.62616 28.3115 8.75513 27.237 8.75513C26.1625 8.75513 25.2915 9.62616 25.2915 10.7006C25.2915 11.7751 26.1625 12.6461 27.237 12.6461Z" fill="white"/>
</svg>
