<svg width="41" height="41" viewBox="0 0 41 41" fill="none" xmlns="http://www.w3.org/2000/svg">
<path d="M20.744 40.2619C31.862 40.2619 40.8749 31.249 40.8749 20.131C40.8749 9.01293 31.862 0 20.744 0C9.62597 0 0.613037 9.01293 0.613037 20.131C0.613037 31.249 9.62597 40.2619 20.744 40.2619Z" fill="#0A3586"/>
<path fill-rule="evenodd" clip-rule="evenodd" d="M26.5364 20.4696C26.5364 19.1094 25.4577 18.0286 24.2566 18.0286C23.3389 18.0286 22.5275 18.0286 21.9884 19.1671C21.8889 19.3773 21.7737 19.9894 21.7737 20.2921V26.1703H18.858V18.7039V15.0212H21.8857L22.0351 16.4736H22.1005C22.5376 15.7834 23.5311 15.0212 25.3236 15.0212C27.5086 15.0212 29.4673 16.7166 29.4673 19.8243V26.1703H26.5364V20.4696ZM14.9321 13.6962C13.9781 13.6962 13.3625 13.0345 13.3625 12.2169C13.3625 11.3794 13.998 10.7366 14.9712 10.7366C15.9444 10.7366 16.5407 11.3791 16.5606 12.2169C16.561 13.0345 15.9447 13.6962 14.9321 13.6962ZM13.7138 26.1703V15.0212H16.274V26.1703H13.7138Z" fill="white"/>
</svg>
